<svg version="1.2" xmlns="http://www.w3.org/2000/svg" viewBox="0 0 71 68" width="71" height="68"><style></style><path fill-rule="evenodd" d="m58.2 4.5l0.1 0.6h6.9l0.2 0.4c0.3 0.3 0.3 0.5 0.3 3 0 2.5 0 2.6-0.3 2.9-0.5 0.5-1.1 0.5-1.5 0-0.4-0.3-0.4-0.4-0.4-2.2v-1.9h-5.3v1.2c0 1.4-0.2 1.7-1.1 1.7-0.8 0-1.1-0.4-1.1-1.8v-1.1h-5.2v1.2c0 1.3-0.3 1.7-1.2 1.7-0.8 0-1.1-0.4-1.1-1.8v-1.1h-5.2v6.4h4.5c4.6 0 4.6 0 4.9 0.3 0.3 0.3 0.3 0.5 0.3 3.4v3.1h10.5v-2.8c0-2.7 0-2.9 0.3-3.2 0.4-0.5 1.2-0.5 1.6 0 0.3 0.3 0.3 0.5 0.3 3.1v2.9h1.4c1.2 0.1 1.4 0.1 2 0.4 1.2 0.8 1.9 1.9 1.9 3.3 0 0.7-0.5 2.8-2.6 10.6-1.4 5.4-2.6 10-2.7 10.2-0.2 0.7-1.2 1.8-2 2.1l-0.7 0.4h-18.3c-17.2 0-18.2 0-18.2 0.3 0.1 0.1 0.3 0.8 0.5 1.6 0.4 1.6 0.8 2.3 1.6 2.8l0.6 0.4 16.4 0.1h16.5l0.3 0.3c0.4 0.5 0.4 1.3 0 1.6-0.2 0.2-0.6 0.3-1.7 0.3h-1.5l0.5 0.6c2.3 3 2 7-0.6 9.7-2.3 2.2-5.5 2.8-8.4 1.3-4-1.9-5.3-7.2-2.6-10.8l0.6-0.8h-4.4c-2.4 0-4.4 0-4.4 0 0 0.1 0.2 0.3 0.5 0.6 2.2 2.8 1.9 7.1-0.6 9.7-1.5 1.4-3.1 2.1-5.3 2.1-2.1 0-3.7-0.7-5.1-2.2-1.7-1.7-2.4-4.2-1.9-6.6 0.2-1 1-2.6 1.4-3.1 0.2-0.1 0.4-0.3 0.4-0.4 0 0-0.3-0.2-0.7-0.3-1.4-0.5-2.5-1.4-3.1-2.6-0.3-0.6-2.6-9.3-2.6-9.8 0-0.5 0.5-1 1.1-1 0.7 0 0.9 0.4 1.4 2.2l0.5 1.7h18.3c17.2 0 18.3 0 18.7-0.2 0.2-0.1 0.4-0.4 0.5-0.6 0.3-0.4 5.4-19.5 5.4-20.2 0-0.4-0.1-0.6-0.4-1l-0.4-0.4-24-0.1c-14 0-24 0.1-24 0.1 0 0.1 0.8 3.4 1.9 7.5 1.1 4 2 7.4 2 7.6 0 0.5-0.5 1-1.1 1-0.9 0-0.8 0.5-4.1-12-1.6-6.3-3.1-11.7-3.2-11.9-0.2-0.2-0.4-0.5-0.5-0.6-0.2-0.1-0.3-0.1-0.5 0.2q-0.5 0.8-1.4 1.2c-0.5 0.2-1 0.3-5.7 0.3-5.5 0-5.5 0-6.4-0.8q-1-0.8-1-2.4c0-1.3 0.6-2.2 1.7-2.9 0.6-0.2 0.7-0.3 5.7-0.3h5.2l0.6 0.4c0.5 0.2 0.9 0.6 1.2 1.1 0.4 0.5 0.7 0.8 1.2 1q1.3 0.6 1.9 1.9c0.2 0.3 0.7 1.9 1.1 3.5l0.7 2.9h4.5l0.1-3.1c0-3.1 0-3.2 0.4-3.4 0.3-0.3 0.5-0.3 4.8-0.3h4.4l0.3-0.9c0.4-1.8 1.6-3.1 3.4-3.6 1-0.3 2.2-0.2 3.1 0.2 0.4 0.2 0.7 0.3 0.7 0.3 0 0 0-0.9 0.1-2 0-2.8-0.3-2.6 4-2.6h3.4l0.2-0.7c0.3-1.8 1.6-3.2 3.4-3.7 2.7-0.7 5.7 1.1 6.1 3.8zm-5.6-1.6c-0.7 0.2-1.5 1.1-1.7 1.7l-0.1 0.4 2.6 0.1c1.4 0 2.6 0 2.6-0.1 0.1-0.1-0.5-1.2-0.9-1.6-0.3-0.2-0.7-0.4-1-0.5-0.6-0.2-0.9-0.2-1.5 0zm-16.7 10.4l-0.1 0.4h2.6c2.9 0 2.8 0 2.5-0.8-0.2-0.5-0.8-1.1-1.4-1.4-1.5-0.7-3.1 0.1-3.6 1.8zm-33-1.3c-0.4 0.2-0.7 0.5-0.7 0.9 0 0.9 0.1 0.9 5.3 0.9h4.7l0.3-0.3c0.5-0.5 0.3-1.2-0.4-1.5-0.5-0.1-8.8-0.2-9.2 0zm30.6 3.9h-7.4v4.6h24.7v-4.6h-7.5v1.1c0 1-0.1 1.2-0.3 1.4-0.4 0.4-1.1 0.4-1.6 0-0.2-0.2-0.3-0.4-0.3-1.4l-0.1-1.1h-5.2v1.1c0 0.9-0.1 1.1-0.3 1.4-0.4 0.4-1.1 0.4-1.5 0-0.3-0.2-0.4-0.4-0.4-1.4zm-3.6 42.1c-0.3 0.6-0.3 0.9-0.3 2 0 1.2 0 1.5 0.4 2.1 0.5 1.1 1.4 2 2.5 2.6 0.8 0.3 1.1 0.4 2.1 0.4 0.9 0 1.2-0.1 2-0.4 3.5-1.7 4.1-6.3 1-8.7-0.3-0.2-0.8-0.5-1.3-0.7-2.5-0.9-5.2 0.2-6.4 2.7zm19 1.2c-0.4 2.6 1.2 5.1 3.9 5.8 1 0.2 1.8 0.2 3-0.3 1.1-0.4 2.4-1.7 2.8-2.8 0.4-1.1 0.5-2.6 0-3.7-0.5-1.3-1.7-2.5-3-2.9-2.9-1.1-6.1 0.8-6.7 3.9zm-13.3-2.1c2.5 0.8 2.8 4.4 0.6 5.7-0.6 0.3-0.8 0.4-1.6 0.4-1.3 0-2.2-0.5-2.8-1.5-0.9-1.7-0.2-4 1.6-4.6 0.8-0.3 1.5-0.3 2.2 0zm21.5 2.9c0 2.3-2.4 3.9-4.4 2.9-0.8-0.3-1.2-0.7-1.6-1.4-0.9-1.7-0.1-3.8 1.8-4.5 1.9-0.7 4.2 0.9 4.2 3zm-31.2-33.2h18.7c18.4 0 18.6 0 18.9 0.2 0.1 0.2 0.2 0.5 0.2 0.8 0 0.3-0.1 0.6-0.2 0.8-0.3 0.2-0.5 0.2-18.9 0.2h-18.7l-0.3-0.3c-0.1-0.2-0.3-0.5-0.3-0.7 0-0.2 0.2-0.5 0.3-0.7zm8.8 6.1h6.8l0.3 0.4c0.4 0.4 0.4 1.1 0 1.5l-0.3 0.3h-13.8l-0.3-0.3c-0.6-0.5-0.4-1.5 0.2-1.7 0.2-0.1 3.4-0.2 7.1-0.2zm10.5 0h8.1c8 0 8.1 0 8.4 0.3 0.5 0.4 0.6 1.2 0.1 1.7-0.3 0.2-0.4 0.2-8.5 0.2h-8.2l-0.3-0.3c-0.4-0.4-0.4-1.1 0-1.5zm-15.9 6.2h15.3c9.7 0 15.3 0.1 15.5 0.1 0.3 0.2 0.6 0.9 0.4 1.3-0.3 0.9 0.7 0.8-15.9 0.8h-15.2l-0.3-0.3c-0.4-0.5-0.5-1.1 0-1.6z"/></svg>